<svg width="25" height="24" viewBox="0 0 25 24" fill="none" xmlns="http://www.w3.org/2000/svg">
<path d="M7.27168 4.47385C6.98346 4.00386 6.36559 3.85298 5.92366 4.1826C5.53362 4.47352 5.1633 4.79 4.81517 5.12996C4.42072 5.51514 4.4735 6.14897 4.89284 6.50689C5.31218 6.8648 5.93879 6.81028 6.34091 6.43311C6.54324 6.24335 6.75422 6.06303 6.97319 5.89275C7.4084 5.5543 7.55989 4.94383 7.27168 4.47385Z" fill="#111315"/>
<path d="M17.7288 4.47385C18.017 4.00386 18.6349 3.85298 19.0768 4.1826C19.4668 4.47352 19.8371 4.79 20.1853 5.12996C20.5797 5.51514 20.527 6.14897 20.1076 6.50689C19.6883 6.8648 19.0617 6.81028 18.6595 6.43311C18.4572 6.24335 18.2462 6.06303 18.0273 5.89275C17.5921 5.5543 17.4406 4.94383 17.7288 4.47385Z" fill="#111315"/>
<path d="M15.7071 11.2071C16.0976 10.8166 16.0976 10.1834 15.7071 9.79289C15.3166 9.40237 14.6834 9.40237 14.2929 9.79289L13.018 11.0677C12.8528 11.0236 12.6792 11 12.5 11C11.3954 11 10.5 11.8954 10.5 13C10.5 14.1046 11.3954 15 12.5 15C13.6046 15 14.5 14.1046 14.5 13C14.5 12.8208 14.4764 12.6472 14.4323 12.482L15.7071 11.2071Z" fill="#111315"/>
<path fill-rule="evenodd" clip-rule="evenodd" d="M10.5 2C9.94772 2 9.5 2.44772 9.5 3C9.5 3.55228 9.94772 4 10.5 4H11.5V5.06189C7.55369 5.55399 4.5 8.92038 4.5 13C4.5 17.4183 8.08172 21 12.5 21C16.9183 21 20.5 17.4183 20.5 13C20.5 8.92038 17.4463 5.55399 13.5 5.06189V4H14.5C15.0523 4 15.5 3.55228 15.5 3C15.5 2.44772 15.0523 2 14.5 2H10.5ZM12.5 19C15.8137 19 18.5 16.3137 18.5 13C18.5 9.68629 15.8137 7 12.5 7C9.18629 7 6.5 9.68629 6.5 13C6.5 16.3137 9.18629 19 12.5 19Z" fill="#111315"/>
</svg>
